<svg width="21" height="20" viewBox="0 0 21 20" fill="none" xmlns="http://www.w3.org/2000/svg">
<path d="M3.83334 3.33335V7.50002H4.31834M4.31834 7.50002C4.87155 6.13179 5.86308 4.98578 7.13753 4.24157C8.41199 3.49737 9.89735 3.19703 11.3608 3.38764C12.8243 3.57824 14.1832 4.24902 15.2245 5.29483C16.2658 6.34065 16.9307 7.70241 17.115 9.16669M4.31834 7.50002H8.00001M17.1667 16.6667V12.5H16.6825M16.6825 12.5C16.1285 13.8674 15.1367 15.0126 13.8624 15.7561C12.588 16.4996 11.1031 16.7996 9.64009 16.6091C8.17706 16.4185 6.81851 15.7482 5.77712 14.7031C4.73574 13.658 4.07031 12.2971 3.88501 10.8334M16.6825 12.5H13" stroke="#5061D0" stroke-linecap="round" stroke-linejoin="round"/>
</svg>
