<svg width="17" height="16" viewBox="0 0 17 16" fill="none" xmlns="http://www.w3.org/2000/svg">
<path d="M3.16663 2.66666V5.99999H3.55463M3.55463 5.99999C3.99719 4.90541 4.79041 3.9886 5.80998 3.39323C6.82954 2.79787 8.01783 2.5576 9.18861 2.71009C10.3594 2.86257 11.4465 3.39919 12.2795 4.23584C13.1126 5.0725 13.6445 6.1619 13.792 7.33333M3.55463 5.99999H6.49996M13.8333 13.3333V9.99999H13.446M13.446 9.99999C13.0028 11.0939 12.2093 12.01 11.1898 12.6049C10.1704 13.1997 8.98245 13.4397 7.81203 13.2872C6.6416 13.1348 5.55476 12.5986 4.72165 11.7625C3.88854 10.9264 3.3562 9.83762 3.20796 8.66666M13.446 9.99999H10.5" stroke="#838598" stroke-linecap="round" stroke-linejoin="round"/>
</svg>
